<svg xmlns="http://www.w3.org/2000/svg" xmlns:xlink="http://www.w3.org/1999/xlink" id="Layer_1" width="190.003" height="50" x="0" y="0" enable-background="new 0 0 190.003 50" version="1.1" viewBox="0 0 190.003 50" xml:space="preserve"><switch><g><g id="Shape_10_copy_30"><g><rect width="190.003" height="50" y="-.01" fill="#028373"/></g></g><g id="Add"><g><path fill="#FFF" fill-rule="evenodd" d="M35.399,8.082c-9.329,0-16.918,7.591-16.918,16.919 c0,9.331,7.59,16.918,16.918,16.918c9.33,0,16.918-7.588,16.918-16.918C52.318,15.672,44.729,8.082,35.399,8.082z M35.399,40.616c-8.61,0-15.617-7.004-15.617-15.616c0-8.611,7.006-15.616,15.617-15.616c8.611,0,15.618,7.005,15.618,15.616 C51.017,33.612,44.011,40.616,35.399,40.616z M35.924,15.234h-1.113v9.232h-9.168v1.048h9.168v9.232h1.113v-9.232h9.232v-1.048 h-9.232V15.234z" clip-rule="evenodd"/></g></g><text fill="#FFF" font-family="'Segoe UI', Tahoma, Geneva, Verdana, sans-serif" font-size="16" transform="matrix(1 0 0 1 63.8701 29.627)">ADD REQUEST</text></g></switch></svg>