<svg xmlns="http://www.w3.org/2000/svg" xmlns:xlink="http://www.w3.org/1999/xlink" id="Layer_1" width="49.996" height="50" x="0" y="0" enable-background="new 0 0 49.996 50" version="1.1" viewBox="0 0 49.996 50" xml:space="preserve"><switch><g><g id="Shape_10_copy_30"><g><rect width="190.003" height="50" y="62.125" fill="#028373"/></g></g><g id="Add"><g><path fill="#FFF" fill-rule="evenodd" d="M24.998,8.662c-9.329,0-16.918,7.591-16.918,16.919 c0,9.33,7.59,16.918,16.918,16.918c9.33,0,16.918-7.588,16.918-16.918C41.916,16.253,34.327,8.662,24.998,8.662z M24.998,41.197 c-8.61,0-15.617-7.005-15.617-15.616S16.387,9.965,24.998,9.965c8.611,0,15.618,7.005,15.618,15.616 S33.609,41.197,24.998,41.197z M25.522,15.814H24.41v9.232h-9.168v1.048h9.168v9.232h1.113v-9.232h9.232v-1.048h-9.232V15.814z" clip-rule="evenodd"/></g></g></g></switch></svg>