<svg xmlns="http://www.w3.org/2000/svg" xmlns:xlink="http://www.w3.org/1999/xlink" id="Layer_1" width="49.996" height="50" x="0" y="0" enable-background="new 0 0 49.996 50" version="1.1" viewBox="0 0 49.996 50" xml:space="preserve"><switch><g><g id="Shape_10_copy_30"><g><rect width="190.003" height="50" y="62.125" fill="#028373"/></g></g><g id="trash_copy_3"><g><path fill="#7D7D7D" fill-rule="evenodd" d="M30.949,12.395v-1.322c0-1.46-1.185-2.645-2.646-2.645h-6.611 c-1.461,0-2.646,1.185-2.646,2.645v1.322h-6.611v1.323h1.36l1.325,25.209c0,1.46,1.185,2.645,2.646,2.645h14.546 c1.461,0,2.645-1.185,2.645-2.645l1.3-25.209h1.305v-1.323H30.949z M20.369,11.072c0-0.729,0.594-1.322,1.323-1.322h6.611 c0.73,0,1.323,0.593,1.323,1.322v1.322h-9.258V11.072z M33.636,38.858l-0.002,0.033v0.035c0,0.729-0.593,1.322-1.322,1.322 H17.766c-0.73,0-1.323-0.593-1.323-1.322v-0.035l-0.001-0.034l-1.321-25.14h19.813L33.636,38.858z M25.659,16.445h-1.322v21.159 h1.322V16.445z M21.721,37.562l-1.354-21.117l-1.319,0.085l1.354,21.117L21.721,37.562z M30.958,16.486l-1.32-0.082 l-1.334,21.158l1.32,0.083L30.958,16.486z" clip-rule="evenodd"/></g></g></g></switch></svg>