<svg xmlns="http://www.w3.org/2000/svg" xmlns:xlink="http://www.w3.org/1999/xlink" id="Layer_1" width="49.996" height="50" x="0" y="0" enable-background="new 0 0 49.996 50" version="1.1" viewBox="0 0 49.996 50" xml:space="preserve"><switch><g><g id="Shape_10_copy_30"><g><rect width="190.003" height="50" y="62.125" fill="#028373"/></g></g><g id="Edit_copy_4"><g><path fill="#7D7D7D" fill-rule="evenodd" d="M39.813,9.745c-1.479-1.465-2.994-1.771-4.006-1.771 c-0.62,0-1.027,0.119-1.072,0.133l-0.169,0.053l-21.06,20.846L8.51,40.548H8.506v1.009h20.013v-1.009H8.526l11.648-4.941 l20.934-20.722l0.098-0.098l0.055-0.125C41.305,14.562,42.29,12.195,39.813,9.745z M39.973,13.993l-0.821,0.813l-4.628-4.581 l-1.019,1.008l4.628,4.581l-1.142,1.13l-4.628-4.582l-1.018,1.008l4.627,4.581l-16.62,16.452l-8.106,3.439l3.475-8.025 L35.311,9.438c0.113-0.019,0.284-0.039,0.497-0.039c0.739,0,1.858,0.235,2.988,1.354C40.312,12.253,40.081,13.609,39.973,13.993 z" clip-rule="evenodd"/></g></g></g></switch></svg>